HIERARCHY
ROOT Hips
{
	OFFSET 0.00000 0.00000 0.00000
	CHANNELS 6 Xposition Yposition Zposition Zrotation Yrotation Xrotation 
	JOINT LHipJoint
	{
		OFFSET 0 0 0
		CHANNELS 3 Zrotation Yrotation Xrotation
		JOINT LeftHip
		{
			OFFSET 1.58895 -1.83665 0.71753
			CHANNELS 3 Zrotation Yrotation Xrotation
			JOINT LeftKnee
			{
				OFFSET 2.50528 -6.88321 0.00000
				CHANNELS 3 Zrotation Yrotation Xrotation
				JOINT LeftAnkle
				{
					OFFSET 2.63244 -7.23257 0.00000
					CHANNELS 3 Zrotation Yrotation Xrotation
					JOINT LeftToe
					{
						OFFSET 0.23691 -0.65090 1.72750
						CHANNELS 3 Zrotation Yrotation Xrotation
						End Site
						{
							OFFSET 0.00000 -0.00000 0.92561
						}
					}
				}
			}
		}
	}
	JOINT RHipJoint
	{
		OFFSET 0 0 0
		CHANNELS 3 Zrotation Yrotation Xrotation
		JOINT RightHip
		{
			OFFSET -1.51435 -1.83665 0.71753
			CHANNELS 3 Zrotation Yrotation Xrotation
			JOINT RightKnee
			{
				OFFSET -2.54551 -6.99375 0.00000
				CHANNELS 3 Zrotation Yrotation Xrotation
				JOINT RightAnkle
				{
					OFFSET -2.66027 -7.30903 0.00000
					CHANNELS 3 Zrotation Yrotation Xrotation
					JOINT RightToe
					{
						OFFSET -0.22981 -0.63138 2.03959
						CHANNELS 3 Zrotation Yrotation Xrotation
						End Site
						{
							OFFSET -0.00000 -0.00000 1.07060
						}
					}
				}
			}
		}
	}
	JOINT lowerback
	{
		OFFSET 0 0 0
		CHANNELS 3 Zrotation Yrotation Xrotation
		JOINT Chest
		{
			OFFSET -0.02651 1.86275 -0.11152
			CHANNELS 3 Zrotation Yrotation Xrotation
			JOINT Chest2
			{
				OFFSET 0.01019 1.86224 0.04087
				CHANNELS 3 Zrotation Yrotation Xrotation
				JOINT lowerneck
				{
					OFFSET 0 0 0
					CHANNELS 3 Zrotation Yrotation Xrotation
					JOINT Neck
					{
						OFFSET -0.01926 1.80512 0.08867
						CHANNELS 3 Zrotation Yrotation Xrotation
						JOINT Head
						{
							OFFSET 0.05516 1.76451 -0.38475
							CHANNELS 3 Zrotation Yrotation Xrotation
							End Site
							{
								OFFSET 0.01592 1.82587 -0.14001
							}
						}
					}
				}
				JOINT LeftCollar
				{
					OFFSET 0 0 0
					CHANNELS 3 Zrotation Yrotation Xrotation
					JOINT LeftShoulder
					{
						OFFSET 3.47116 1.51376 0.14491
CHANNELS 3 Zrotation Xrotation Yrotation
						JOINT LeftElbow
						{
OFFSET 0 -4.780950 0.000000
CHANNELS 3 Zrotation Xrotation Yrotation
							JOINT LeftWrist
							{
OFFSET 0 -3.586150 -0.000000
CHANNELS 3 Zrotation Xrotation Yrotation
								JOINT lhand
								{
									OFFSET 0 0 0
CHANNELS 3 Zrotation Xrotation Yrotation
									JOINT LFingers
									{
OFFSET 0 -0.659810 0.000000
CHANNELS 3 Zrotation Xrotation Yrotation
										End Site
										{
OFFSET 0 -0.531960 0.000000
										}
									}
								}
								JOINT LThumb
								{
OFFSET 0 0.000000 0.000000
CHANNELS 3 Zrotation Xrotation Yrotation
									End Site
									{
OFFSET 0 -0.540080 0.540080
									}
								}
							}
						}
					}
				}
				JOINT RightCollar
				{
					OFFSET 0 0 0
					CHANNELS 3 Zrotation Yrotation Xrotation
					JOINT RightShoulder
					{
						OFFSET -3.31725 1.61216 0.35156
CHANNELS 3 Zrotation Xrotation Yrotation
						JOINT RightElbow
						{
OFFSET 0 -4.489130 0.000000
CHANNELS 3 Zrotation Xrotation Yrotation
							JOINT RightWrist
							{
OFFSET 0 -3.705100 0.000000
CHANNELS 3 Zrotation Xrotation Yrotation
								JOINT rhand
								{
									OFFSET 0 0 0
CHANNELS 3 Zrotation Xrotation Yrotation
									JOINT RFingers
									{
OFFSET 0 -0.449140 0.000000
CHANNELS 3 Zrotation Xrotation Yrotation
										End Site
										{
OFFSET 0 -0.362110 0.000000
										}
									}
								}
								JOINT RThumb
								{
OFFSET 0 0.000000 0.000000
CHANNELS 3 Zrotation Xrotation Yrotation
									End Site
									{
OFFSET 0 -0.367630 0.367630
									}
								}
							}
						}
					}
				}
			}
		}
	}
}
MOTION
Frames: 12
Frame Time: 0.008333333333333333
-0.948500 18.593700 6.023700 -3.453000 -1.692600 -1.765300 0.000000 0.000000 0.000000 -10.351200 -4.870400 -0.246900 1.579700 7.929500 22.500200 1.462300 1.950300 -23.623900 8.729300 -16.630400 -55.149300 0.000000 0.000000 0.000000 16.514900 -8.730600 9.007000 0.000000 -0.000000 0.000000 -0.564500 -1.664400 -14.892100 -0.218200 3.007200 -8.298800 -0.138700 1.289200 9.138100 0.907200 1.765200 -1.555800 0.767200 0.890100 -6.800300 -1.009400 -2.458500 -11.891900 3.706900 -4.222700 24.970900 0.960900 -1.630600 9.993400 0.000000 -0.000000 0.000000 -1.788600 11.450400 -28.901900 20.754800 -31.541000 5.921200 4.625900 10.260300 25.119600 0.000000 0.000000 0.000000 -7.125000 0.000000 0.000000 -15.141800 5.508900 -14.132300 0.000000 -0.000000 0.000000 -0.026100 17.949400 24.389400 -23.986200 -35.149600 -7.698600 -8.753400 22.212400 28.578500 0.000000 0.000000 0.000000 7.125000 0.000000 -0.000000 24.065100 57.174100 -7.469800
-0.946230 18.593867 6.021331 -3.437887 -1.707200 -1.742436 0.000000 0.000000 0.000000 -10.377668 -4.888664 -0.264818 1.578662 7.926957 22.492471 1.460099 1.946307 -23.604664 8.706383 -16.615022 -55.068975 0.000000 0.000000 0.000000 16.498253 -8.703481 8.974688 0.000000 0.000000 0.000000 -0.563964 -1.678414 -14.892761 -0.220481 3.022532 -8.341509 -0.159274 1.297703 9.162183 0.903577 1.773998 -1.545292 0.773231 0.895100 -6.803554 -0.902435 -2.439727 -11.905949 3.589816 -4.189658 24.971298 0.905548 -1.618242 9.990149 0.000000 0.000000 0.000000 -1.811830 11.435980 -28.873705 20.744306 -31.528602 5.915652 4.656444 10.288888 25.167606 0.000000 0.000000 0.000000 -7.125000 0.000000 0.000000 -15.123480 5.459931 -14.128467 0.000000 0.000000 0.000000 -0.044755 17.913177 24.437550 -23.975583 -35.138414 -7.692471 -8.778646 22.162308 28.634713 0.000000 0.000000 0.000000 7.125000 0.000000 0.000000 24.080631 57.230237 -7.508218
-0.944495 18.594268 6.020063 -3.407759 -1.721596 -1.725818 0.000000 0.000000 0.000000 -10.417597 -4.876927 -0.279596 1.575722 7.920073 22.471553 1.459229 1.961185 -23.604336 8.718916 -16.623377 -55.112907 0.000000 0.000000 0.000000 16.465242 -8.679477 8.952274 0.000000 0.000000 0.000000 -0.562763 -1.698809 -14.887073 -0.226142 3.061160 -8.449001 -0.177205 1.300109 9.190557 0.888479 1.774071 -1.538404 0.766930 0.895436 -6.812553 -0.771724 -2.418840 -11.902814 3.441176 -4.150086 24.958417 0.836141 -1.604760 9.977416 0.000000 0.000000 0.000000 -1.832612 11.416443 -28.772180 20.727207 -31.508496 5.906702 4.601412 10.420535 25.207386 0.000000 0.000000 0.000000 -7.125000 0.000000 0.000000 -15.156258 5.426179 -14.171519 0.000000 0.000000 0.000000 -0.028415 17.881803 24.468776 -23.946942 -35.108037 -7.675981 -9.007935 22.215672 28.633398 0.000000 0.000000 0.000000 7.125000 0.000000 0.000000 23.850238 57.277071 -7.458031
-0.942690 18.594699 6.019099 -3.370585 -1.715082 -1.723334 0.000000 0.000000 0.000000 -10.462899 -4.871112 -0.279138 1.572487 7.912269 22.448005 1.457630 1.978542 -23.599109 8.732733 -16.632688 -55.161315 0.000000 0.000000 0.000000 16.413914 -8.682617 8.949433 0.000000 0.000000 0.000000 -0.563193 -1.685255 -14.886196 -0.219672 3.017210 -8.326769 -0.190435 1.298257 9.225780 0.876147 1.769235 -1.530705 0.761570 0.893268 -6.824506 -0.756967 -2.410381 -11.925577 3.394360 -4.130386 24.987322 0.819472 -1.598791 9.990143 0.000000 0.000000 0.000000 -1.868838 11.392937 -28.675924 20.706417 -31.484084 5.895904 4.520652 10.522182 25.179758 0.000000 0.000000 0.000000 -7.125000 0.000000 0.000000 -15.204488 5.459557 -14.210102 0.000000 0.000000 0.000000 -0.019960 17.892362 24.465011 -23.956590 -35.118301 -7.681609 -9.103016 22.222993 28.643672 0.000000 0.000000 0.000000 7.125000 0.000000 0.000000 23.762412 57.306230 -7.445469
-0.940858 18.594500 6.019140 -3.351857 -1.717020 -1.729016 0.000000 0.000000 0.000000 -10.496983 -4.888487 -0.249627 1.570189 7.906676 22.430959 1.463777 1.965759 -23.641699 8.706120 -16.614802 -55.068071 0.000000 0.000000 0.000000 16.383015 -8.680582 8.956182 0.000000 0.000000 0.000000 -0.561995 -1.679935 -14.868883 -0.216458 2.995300 -8.265665 -0.191490 1.295120 9.252979 0.864125 1.764120 -1.527533 0.749673 0.890485 -6.836162 -0.774840 -2.409553 -11.867915 3.436375 -4.133297 24.927964 0.837421 -1.598803 9.959202 0.000000 0.000000 0.000000 -1.887963 11.377063 -28.556922 20.672458 -31.443960 5.878109 4.491687 10.595496 25.205786 0.000000 0.000000 0.000000 -7.125000 0.000000 0.000000 -15.221673 5.436912 -14.234232 0.000000 0.000000 0.000000 -0.003870 17.936399 24.469749 -23.991953 -35.155763 -7.701907 -8.915279 22.124704 28.683161 0.000000 0.000000 0.000000 7.125000 0.000000 0.000000 23.979182 57.302816 -7.516796
-0.939929 18.595110 6.019803 -3.343684 -1.723595 -1.721389 0.000000 0.000000 0.000000 -10.511293 -4.892847 -0.249331 1.569603 7.905239 22.426652 1.467271 1.959020 -23.666376 8.714358 -16.620362 -55.097039 0.000000 0.000000 0.000000 16.372701 -8.672307 8.952819 0.000000 0.000000 0.000000 -0.561871 -1.690024 -14.871775 -0.225214 3.054504 -8.430611 -0.182383 1.306312 9.249765 0.855287 1.779371 -1.509662 0.733231 0.897350 -6.815047 -0.836868 -2.410789 -11.859670 3.497798 -4.134292 24.872288 0.869329 -1.599060 9.940398 0.000000 0.000000 0.000000 -1.894621 11.351080 -28.510077 20.659974 -31.429310 5.871671 4.468301 10.643670 25.252688 0.000000 0.000000 0.000000 -7.125000 0.000000 0.000000 -15.235465 5.393600 -14.261092 0.000000 0.000000 0.000000 0.017159 17.946742 24.498371 -24.025221 -35.190905 -7.721051 -8.842404 22.045455 28.790729 0.000000 0.000000 0.000000 7.125000 0.000000 0.000000 24.130568 57.384893 -7.616754
-0.939279 18.595601 6.019107 -3.337512 -1.697925 -1.701465 0.000000 0.000000 0.000000 -10.513706 -4.887118 -0.286432 1.570716 7.907939 22.434619 1.465925 1.926949 -23.642261 8.729758 -16.630704 -55.150902 0.000000 0.000000 0.000000 16.368771 -8.691856 8.928525 0.000000 0.000000 0.000000 -0.560789 -1.709059 -14.867841 -0.231774 3.098949 -8.554232 -0.179644 1.298975 9.262352 0.861734 1.770206 -1.498629 0.739718 0.892843 -6.810453 -0.888675 -2.390715 -11.845995 3.490119 -4.088516 24.801120 0.881011 -1.584713 9.911860 0.000000 0.000000 0.000000 -1.929166 11.330325 -28.451878 20.651802 -31.419550 5.867345 4.472417 10.694522 25.274705 0.000000 0.000000 0.000000 -7.125000 0.000000 0.000000 -15.232967 5.372129 -14.264951 0.000000 0.000000 0.000000 0.000047 17.933954 24.544153 -24.035329 -35.201607 -7.726886 -8.801264 22.026784 28.872355 0.000000 0.000000 0.000000 7.125000 0.000000 0.000000 24.231575 57.450194 -7.690051
-0.937351 18.595665 6.019844 -3.316133 -1.703882 -1.707870 0.000000 0.000000 0.000000 -10.539367 -4.856876 -0.296479 1.572493 7.912196 22.447657 1.459004 1.911712 -23.581524 8.718393 -16.623007 -55.110995 0.000000 0.000000 0.000000 16.333649 -8.684064 8.931970 0.000000 0.000000 0.000000 -0.560000 -1.703418 -14.854704 -0.221872 3.031913 -8.367611 -0.171729 1.311478 9.289793 0.844196 1.786583 -1.485826 0.713911 0.900222 -6.811920 -0.781874 -2.397487 -11.805630 3.378650 -4.088929 24.712019 0.824241 -1.589468 9.867185 0.000000 0.000000 0.000000 -1.908763 11.301518 -28.435427 20.628021 -31.391607 5.854993 4.422575 10.758469 25.301736 0.000000 0.000000 0.000000 -7.125000 0.000000 0.000000 -15.262536 5.350111 -14.301469 0.000000 0.000000 0.000000 0.043774 17.900860 24.512923 -24.002596 -35.166982 -7.708030 -8.905228 22.078030 28.713123 0.000000 0.000000 0.000000 7.125000 0.000000 0.000000 24.011101 57.327817 -7.542459
-0.936289 18.595052 6.019958 -3.313973 -1.715881 -1.710595 0.000000 0.000000 0.000000 -10.547469 -4.855701 -0.299875 1.575174 7.918633 22.467168 1.459549 1.936218 -23.596421 8.721012 -16.624775 -55.120190 0.000000 0.000000 0.000000 16.326405 -8.670946 8.933531 0.000000 0.000000 0.000000 -0.560205 -1.697779 -14.854701 -0.221453 3.029439 -8.360790 -0.165837 1.336478 9.348432 0.837791 1.820602 -1.501038 0.697208 0.916451 -6.861826 -0.726375 -2.417477 -11.795040 3.305747 -4.109993 24.698465 0.786974 -1.602523 9.857926 0.000000 0.000000 0.000000 -1.876916 11.324210 -28.471140 20.628944 -31.392697 5.855490 4.327121 10.826292 25.332788 0.000000 0.000000 0.000000 -7.125000 0.000000 0.000000 -15.319273 5.328056 -14.365459 0.000000 0.000000 0.000000 0.108438 17.927842 24.417267 -23.989551 -35.153215 -7.700520 -8.974719 22.099566 28.506506 0.000000 0.000000 0.000000 7.125000 0.000000 0.000000 23.792077 57.154842 -7.367098
-0.935078 18.594500 6.019298 -3.368241 -1.734936 -1.706168 0.000000 0.000000 0.000000 -10.487161 -4.850445 -0.314127 1.578552 7.926626 22.491579 1.462170 1.930495 -23.614203 8.720420 -16.624348 -55.118024 0.000000 0.000000 0.000000 16.386357 -8.651548 8.929120 0.000000 0.000000 0.000000 -0.561074 -1.698270 -14.865850 -0.217022 2.999050 -8.276213 -0.085720 1.355640 9.413007 0.839174 1.855982 -1.516206 0.646529 0.930544 -6.912856 -0.714695 -2.430928 -11.798382 3.312505 -4.133172 24.697008 0.784531 -1.611310 9.858517 0.000000 0.000000 0.000000 -1.838427 11.319872 -28.501734 20.606311 -31.365866 5.843689 4.305756 10.858976 25.461571 0.000000 0.000000 0.000000 -7.125000 0.000000 0.000000 -15.331529 5.205611 -14.414630 0.000000 0.000000 0.000000 0.175415 17.947368 24.335092 -23.989789 -35.153521 -7.700639 -8.895030 22.106995 28.406203 0.000000 0.000000 0.000000 7.125000 0.000000 0.000000 23.799812 57.047202 -7.306591
-0.933609 18.594536 6.019520 -3.402978 -1.753150 -1.700411 0.000000 0.000000 0.000000 -10.447017 -4.815079 -0.344878 1.581811 7.934542 22.515434 1.462087 1.888973 -23.596436 8.709779 -16.617284 -55.080960 0.000000 0.000000 0.000000 16.419922 -8.633297 8.928791 0.000000 0.000000 0.000000 -0.559124 -1.707525 -14.845884 -0.220589 3.023184 -8.343232 -0.027637 1.359236 9.448290 0.842380 1.867994 -1.508649 0.614731 0.934087 -6.923380 -0.769666 -2.432371 -11.876113 3.386633 -4.144722 24.750325 0.817462 -1.611551 9.895919 0.000000 0.000000 0.000000 -1.817220 11.257261 -28.516336 20.561797 -31.313230 5.820542 4.373942 10.777921 25.536402 0.000000 0.000000 0.000000 -7.125000 0.000000 0.000000 -15.290870 5.127836 -14.396798 0.000000 0.000000 0.000000 0.197151 17.951845 24.362450 -24.040789 -35.207334 -7.730037 -8.741215 22.063902 28.549496 0.000000 0.000000 0.000000 7.125000 0.000000 0.000000 24.056423 57.145058 -7.449964
-0.932209 18.594531 6.020998 -3.413592 -1.770384 -1.712482 0.000000 0.000000 0.000000 -10.436206 -4.779205 -0.346228 1.583653 7.939013 22.529040 1.465498 1.841237 -23.602648 8.690965 -16.604677 -55.015008 0.000000 0.000000 0.000000 16.422085 -8.621909 8.951127 0.000000 0.000000 0.000000 -0.558246 -1.706712 -14.834872 -0.228487 3.076477 -8.491824 -0.010497 1.364273 9.488035 0.855269 1.877678 -1.495905 0.616324 0.938397 -6.932540 -0.790868 -2.426072 -11.900036 3.379306 -4.128783 24.741826 0.820094 -1.606746 9.897320 0.000000 0.000000 0.000000 -1.816000 11.234278 -28.538019 20.561260 -31.312626 5.820253 4.386813 10.659750 25.510837 0.000000 0.000000 0.000000 -7.125000 0.000000 0.000000 -15.283282 5.151391 -14.381966 0.000000 0.000000 0.000000 0.180256 17.974826 24.430195 -24.118391 -35.289127 -7.774864 -8.602342 21.947071 28.779136 0.000000 0.000000 0.000000 7.125000 0.000000 0.000000 24.362329 57.323934 -7.659564
